<?xml version="1.0" encoding="UTF-8"?>
<svg version="1.1" xmlns="http://www.w3.org/2000/svg" width="512" height="512">
<path d="M0 0 C1.79630859 0.49306641 1.79630859 0.49306641 3.62890625 0.99609375 C30.37513902 9.0562202 54.73905335 27.59322864 68.23974609 52.265625 C77.62959055 70.35798173 82.36339686 87.63250051 82.3125 108.0625 C82.32861328 109.35994141 82.34472656 110.65738281 82.36132812 111.99414062 C82.36744162 124.05606416 80.67194886 133.22398775 72 142 C62.4246145 149.85181611 51.41771471 149.29505695 39.64501953 149.2746582 C37.98520682 149.27901009 36.32539612 149.28419482 34.66558838 149.29014587 C30.17377561 149.30349611 25.68204718 149.30411896 21.19021845 149.30158257 C17.43293647 149.30051012 13.67567137 149.30540325 9.91839302 149.310188 C1.05023736 149.32126952 -7.81787593 149.32172827 -16.68603516 149.31567383 C-25.81782978 149.30963501 -34.94947029 149.32194583 -44.08123863 149.3432439 C-51.93712749 149.36088878 -59.79296742 149.36685669 -67.64887536 149.36360615 C-72.33393111 149.3617977 -77.01887693 149.36438563 -81.70391464 149.37832069 C-86.11169899 149.39094142 -90.51924396 149.38891498 -94.92702484 149.37590981 C-96.53861448 149.37355367 -98.15022119 149.37624397 -99.76179123 149.38453293 C-112.83684542 149.44689995 -123.35065747 148.53492345 -133 139 C-140.40832798 129.96545368 -140.38968419 119.84581665 -140.375 108.625 C-140.37478851 107.95937042 -140.37457703 107.29374084 -140.37435913 106.60794067 C-140.27864782 76.41170374 -128.59345875 50.8758353 -108 29 C-107.46117187 28.39671875 -106.92234375 27.7934375 -106.3671875 27.171875 C-80.8703328 -0.24685317 -35.30598455 -10.3692963 0 0 Z " fill="#0A6F46" transform="translate(285,358)"/>
<path d="M0 0 C11.7968016 10.75835076 17.1278056 25.43004963 17.9609375 41.08984375 C18.12591977 57.6045687 12.00931288 71.12106232 0.9765625 83.21875 C-10.81239771 94.61328403 -25.95565688 98.83678186 -42 99 C-57.70010644 97.95974755 -71.36918386 91.11085237 -82.25 79.875 C-92.84071386 67.32304283 -96.78071069 51.73715034 -95.7890625 35.55859375 C-93.83006149 20.20076511 -86.48511747 6.84448369 -74.62109375 -3.1484375 C-51.31312184 -19.61338338 -21.7647288 -18.47314944 0 0 Z " fill="#0A6F46" transform="translate(295,247)"/>
<path d="M0 0 C1.34513559 1.29248841 2.67701907 2.59889407 3.99609375 3.91796875 C3.74183954 8.73126396 1.1289981 12.52052162 -1.19140625 16.60546875 C-8.17983056 29.39625969 -12.15158269 42.60371793 -14.4609375 56.953125 C-15.00390625 59.91796875 -15.00390625 59.91796875 -16.00390625 60.91796875 C-17.40696608 61.01992768 -18.8150978 61.05314758 -20.22184753 61.05841064 C-21.13169403 61.06412079 -22.04154053 61.06983093 -22.97895813 61.07571411 C-23.98516708 61.07683197 -24.99137604 61.07794983 -26.02807617 61.07910156 C-27.60854736 61.08654892 -27.60854736 61.08654892 -29.22094727 61.09414673 C-32.7254297 61.10881536 -36.22986684 61.11557912 -39.734375 61.12109375 C-42.16237897 61.12684254 -44.59038291 61.13260031 -47.01838684 61.1383667 C-52.11878675 61.1488909 -57.21917083 61.15472387 -62.31958008 61.15820312 C-68.85561965 61.16368246 -75.39145032 61.18769274 -81.92742443 61.21617508 C-86.94687001 61.23480142 -91.96626535 61.24000713 -96.98574257 61.241539 C-99.39508516 61.24456744 -101.80442682 61.25260236 -104.21373558 61.26572418 C-107.58690605 61.28277971 -110.95956756 61.28090504 -114.33276367 61.27441406 C-115.32885147 61.28362885 -116.32493927 61.29284363 -117.35121155 61.30233765 C-123.56927674 61.26485778 -128.11187949 60.58566639 -132.8671875 56.19921875 C-133.34542969 55.61140625 -133.82367188 55.02359375 -134.31640625 54.41796875 C-134.80753906 53.83015625 -135.29867187 53.24234375 -135.8046875 52.63671875 C-139.21149255 47.75400141 -138.65063989 41.56903936 -138.00390625 35.91796875 C-132.21116541 15.65406352 -118.10313539 -1.48882153 -100.00390625 -12.08203125 C-66.93363921 -29.70926019 -27.64316182 -25.69708323 0 0 Z " fill="#0A6F46" transform="translate(146.00390625,391.08203125)"/>
<path d="M0 0 C11.70741017 10.31705647 23.35194002 25.6742039 25.265625 41.6484375 C25.53318506 48.19149716 24.9261254 52.35214669 20.89453125 57.55078125 C16.75914034 61.68617216 13.2929571 63.67498789 7.4024353 63.67776489 C6.48261368 63.68058472 5.56279205 63.68340454 4.61509705 63.68630981 C3.60822342 63.68428558 2.60134979 63.68226135 1.56396484 63.68017578 C-0.02899162 63.68280426 -0.02899162 63.68280426 -1.65412903 63.68548584 C-5.17177962 63.68989486 -8.68938013 63.68697009 -12.20703125 63.68359375 C-14.64415497 63.68426696 -17.08127862 63.68523713 -19.5184021 63.68649292 C-24.62783446 63.68796852 -29.73724935 63.68581935 -34.84667969 63.68115234 C-41.4122233 63.67544911 -47.97772609 63.6787387 -54.5432682 63.68472481 C-59.57537141 63.68832897 -64.60746484 63.68719261 -69.63956833 63.68459702 C-72.06140523 63.68392766 -74.48324301 63.68475647 -76.90507889 63.68707657 C-80.28130716 63.68960137 -83.65746817 63.68576521 -87.03369141 63.68017578 C-88.55007454 63.68321213 -88.55007454 63.68321213 -90.09709167 63.68630981 C-91.01127365 63.68348999 -91.92545563 63.68067017 -92.86734009 63.67776489 C-93.66632532 63.67738787 -94.46531055 63.67701084 -95.28850746 63.67662239 C-97.10546875 63.55078125 -97.10546875 63.55078125 -98.10546875 62.55078125 C-98.51963072 60.42474982 -98.92846968 58.29753275 -99.30932617 56.1652832 C-102.01742658 41.17572188 -106.66777654 28.32059686 -114.29760742 15.13208008 C-117.17684604 10.02833717 -117.17684604 10.02833717 -116.7890625 7.43383789 C-113.28649607 -2.2144817 -98.80915758 -8.99486586 -90.234375 -13.1015625 C-59.64293493 -26.27765092 -25.53286673 -21.19989516 0 0 Z " fill="#0A6F46" transform="translate(479.10546875,388.44921875)"/>
<path d="M0 0 C2.27099609 -0.02612305 2.27099609 -0.02612305 5 1 C6.68873451 3.6154691 7.63090225 6.49335756 8.6640625 9.41796875 C8.98281342 10.26796951 9.30156433 11.11797028 9.62997437 11.99372864 C10.64745368 14.71832948 11.6368747 17.4521327 12.625 20.1875 C13.62597223 22.90260104 14.63256817 25.61554165 15.64144897 28.32771301 C16.26731181 30.01620584 16.88756821 31.70679062 17.50137329 33.39970398 C18.30910441 35.61037196 19.14915524 37.8056427 20 40 C20.43151367 41.15693359 20.86302734 42.31386719 21.30761719 43.50585938 C22.80191764 46.2785302 22.80191764 46.2785302 25.91650391 46.84887695 C27.09132324 46.89488037 28.26614258 46.94088379 29.4765625 46.98828125 C31.43203003 47.08689453 31.43203003 47.08689453 33.42700195 47.1875 C34.8263237 47.2295324 36.22565666 47.27119276 37.625 47.3125 C39.03943954 47.37601268 40.45375194 47.44242251 41.86791992 47.51171875 C44.64804799 47.64378191 47.42803448 47.76102773 50.20947266 47.86181641 C54.19342697 48.00705138 58.17467203 48.17836886 62.15576172 48.38745117 C64.16170477 48.49213079 66.16874959 48.57507582 68.17578125 48.65625 C71 49 71 49 73 51 C72.8205774 53.97744529 72.36835423 55.56674961 70.42578125 57.8515625 C69.72839844 58.43679687 69.03101563 59.02203125 68.3125 59.625 C67.09626953 60.65173828 67.09626953 60.65173828 65.85546875 61.69921875 C61.44419844 65.25358019 56.99818984 68.76035436 52.5234375 72.234375 C48.29880012 75.52611985 44.20073453 78.96210145 40.109375 82.41796875 C38 84 38 84 36 84 C36.5952438 89.7636525 37.69858892 95.09845238 39.28515625 100.6640625 C39.73771668 102.29685103 40.190188 103.92966427 40.64257812 105.5625 C41.35346862 108.1019219 42.06689928 110.64060411 42.7824707 113.17871094 C43.4773616 115.65123525 44.16289376 118.12621731 44.84765625 120.6015625 C45.06325699 121.35482819 45.27885773 122.10809387 45.50099182 122.88418579 C46.64068906 127.01814114 47.33650073 130.66593734 47 135 C46.67 135.33 46.34 135.66 46 136 C40.39028761 135.69338218 36.76870669 133.96678541 32.3125 130.75 C31.01276502 129.84874966 29.71191974 128.94909912 28.41015625 128.05078125 C27.71164551 127.56432129 27.01313477 127.07786133 26.29345703 126.57666016 C21.99521537 123.62179059 17.62064915 120.78365094 13.25 117.9375 C12.38028564 117.36547852 11.51057129 116.79345703 10.61450195 116.20410156 C9.79812256 115.67139648 8.98174316 115.13869141 8.140625 114.58984375 C7.41391602 114.11409912 6.68720703 113.63835449 5.93847656 113.14819336 C3.90276347 111.8501468 3.90276347 111.8501468 1 111 C-1.57671693 112.42980116 -3.9445921 113.91133659 -6.375 115.5625 C-7.47775269 116.2901355 -7.47775269 116.2901355 -8.6027832 117.0324707 C-12.96511919 119.92057224 -17.27771841 122.87789 -21.58203125 125.8515625 C-22.51418457 126.48892334 -23.44633789 127.12628418 -24.40673828 127.78295898 C-26.23545439 129.03544488 -28.05577532 130.30029318 -29.86669922 131.57836914 C-37.62627098 136.88829236 -37.62627098 136.88829236 -43 136 C-44.49817934 130.35528716 -43.300797 126.26377647 -41.69140625 120.83984375 C-41.44583481 119.97235001 -41.20026337 119.10485626 -40.94725037 118.21107483 C-40.16402605 115.4497164 -39.36446807 112.69346772 -38.5625 109.9375 C-37.76617893 107.17744972 -36.97354456 104.41648205 -36.1884613 101.6532135 C-35.70025853 99.93719953 -35.20530936 98.22308675 -34.70277405 96.51121521 C-32.98123739 90.84417598 -32.98123739 90.84417598 -33 85 C-34.20941992 83.32746701 -34.20941992 83.32746701 -36.0078125 82.0546875 C-36.65830566 81.54035156 -37.30879883 81.02601563 -37.97900391 80.49609375 C-39.04127197 79.69365234 -39.04127197 79.69365234 -40.125 78.875 C-40.84478027 78.31167969 -41.56456055 77.74835938 -42.30615234 77.16796875 C-43.79667192 76.00355144 -45.29235413 74.84571425 -46.79296875 73.69433594 C-49.49332968 71.62127124 -52.16688805 69.51555295 -54.83935547 67.40673828 C-56.52636481 66.07770522 -58.21988104 64.75736762 -59.9140625 63.4375 C-68.78451883 56.43096234 -68.78451883 56.43096234 -70.0625 53.875 C-70 52 -70 52 -69.01196289 50.42626953 C-65.87152233 48.20002833 -62.47055616 48.42400075 -58.74609375 48.3046875 C-57.52286156 48.24802414 -57.52286156 48.24802414 -56.2749176 48.19021606 C-53.66282709 48.0717715 -51.05044013 47.9727295 -48.4375 47.875 C-45.84986008 47.76618419 -43.26243752 47.65333035 -40.67506409 47.5383606 C-39.06680293 47.46821137 -37.45835275 47.40221471 -35.84971619 47.34127808 C-30.20617742 47.11351415 -24.61426369 46.61315344 -19 46 C-18.80621262 45.48270325 -18.61242523 44.96540649 -18.4127655 44.43243408 C-16.39263078 39.04378172 -14.36339198 33.65862226 -12.32885742 28.27539062 C-11.57098627 26.26650521 -10.8154326 24.25674391 -10.06225586 22.24609375 C-8.9785958 19.35442867 -7.88661177 16.46602685 -6.79296875 13.578125 C-6.45847214 12.68007141 -6.12397552 11.78201782 -5.77934265 10.85675049 C-5.45923721 10.01618103 -5.13913177 9.17561157 -4.80932617 8.30957031 C-4.53174973 7.57232727 -4.25417328 6.83508423 -3.96818542 6.07550049 C-2.902468 3.79092051 -1.57289812 1.96272656 0 0 Z " fill="#0A6F46" transform="translate(431,72)"/>
<path d="M0 0 C2.47363281 0.05908203 2.47363281 0.05908203 5 1 C6.36230469 3.15576172 6.36230469 3.15576172 7.421875 6.0546875 C7.83373047 7.14233398 8.24558594 8.22998047 8.66992188 9.35058594 C9.10884766 10.55489258 9.54777344 11.75919922 10 13 C10.75428877 14.95531777 11.51986521 16.90600826 12.28527832 18.85699463 C13.62245763 22.27364732 14.9345229 25.69994681 16.25 29.125 C17.06135489 31.23529359 17.87319464 33.34539633 18.68621826 35.45504761 C19.41337372 37.34215058 20.13886403 39.22989493 20.86425781 41.11767578 C21.90571242 43.88490624 21.90571242 43.88490624 23 46 C25.83035882 46.45630424 25.83035882 46.45630424 29.28125 46.59765625 C30.59134033 46.67628906 31.90143066 46.75492188 33.2512207 46.8359375 C34.6674796 46.91147459 36.08373938 46.98699514 37.5 47.0625 C38.9234798 47.14614436 40.34690174 47.23077948 41.77026367 47.31640625 C47.76824759 47.67289592 53.76755116 47.9951947 59.76953125 48.27734375 C60.5584375 48.31657959 61.34734375 48.35581543 62.16015625 48.39624023 C64.16490859 48.49288494 66.17034032 48.57514015 68.17578125 48.65625 C71 49 71 49 73 51 C73.5703125 53.2421875 73.5703125 53.2421875 73 56 C70.8920148 58.37770456 68.40384504 60.21463032 65.875 62.125 C65.15449463 62.68904541 64.43398926 63.25309082 63.69165039 63.83422852 C61.4710294 65.56938538 59.23586902 67.28456159 57 69 C55.06611718 70.51015904 53.1371269 72.02633618 51.20947266 73.54443359 C50.07000763 74.44024338 48.92795516 75.33277689 47.78271484 76.22119141 C43.74753681 79.35938941 39.85748382 82.64626243 36 86 C36.22139648 86.85529297 36.44279297 87.71058594 36.67089844 88.59179688 C36.9805957 89.78869141 37.29029297 90.98558594 37.609375 92.21875 C37.77645966 92.86434875 37.94354431 93.50994751 38.11569214 94.17510986 C39.03110316 97.71396459 39.94416514 101.25340264 40.85302734 104.79394531 C41.21707886 106.21159972 41.58117358 107.62924304 41.9453125 109.046875 C42.12432098 109.74387512 42.30332947 110.44087524 42.48776245 111.15899658 C43.46429014 114.95161396 44.46211147 118.73721845 45.4921875 122.515625 C45.68973633 123.25490234 45.88728516 123.99417969 46.09082031 124.75585938 C46.58618123 126.60508606 47.09337346 128.45113241 47.6015625 130.296875 C48 133 48 133 46 136 C42.50411183 136.78166221 40.40882367 135.82821501 37.48242188 134.02807617 C36.13661615 133.12809858 34.79913967 132.21558245 33.46875 131.29296875 C32.75521362 130.81177078 32.04167725 130.33057281 31.30651855 129.83479309 C29.03018859 128.29641564 26.76500301 126.7424941 24.5 125.1875 C22.23270277 123.64682649 19.96325673 122.10936158 17.69348145 120.57234192 C16.28355331 119.61583666 14.8754978 118.65656349 13.46960449 117.69413757 C12.20902596 116.83264831 10.94411578 115.97744794 9.67407227 115.12997437 C8.20641775 114.13932897 6.77104717 113.10119844 5.34179688 112.0559082 C3.04345652 110.73584532 3.04345652 110.73584532 0.60131836 111.54931641 C-2.56090506 113.3128013 -5.60930219 115.20516811 -8.62109375 117.2109375 C-9.24347427 117.62034576 -9.8658548 118.02975403 -10.50709534 118.4515686 C-12.48669396 119.755195 -14.46211947 121.06499304 -16.4375 122.375 C-17.76079876 123.24780374 -19.08436403 124.12020355 -20.40820312 124.9921875 C-27.36688319 129.5666505 -27.36688319 129.5666505 -34.24243164 134.26416016 C-37.18717774 136.11782503 -38.59786449 136.40025124 -42 136 C-43.38412063 133.75534593 -44.05817947 132.50429706 -43.751297 129.84425354 C-43.51859604 129.06879684 -43.28589508 128.29334015 -43.04614258 127.49438477 C-42.78960403 126.60989151 -42.53306549 125.72539825 -42.26875305 124.81410217 C-41.98025986 123.86611252 -41.69176666 122.91812286 -41.39453125 121.94140625 C-40.81752092 119.92667223 -40.24137541 117.91169037 -39.66601562 115.89648438 C-38.74201608 112.72191231 -37.80894503 109.55064008 -36.85961914 106.38354492 C-35.94946723 103.32635581 -35.07617115 100.26046458 -34.20703125 97.19140625 C-33.91246536 96.24544083 -33.61789948 95.2994754 -33.31440735 94.32484436 C-32.61456438 91.81064967 -32.05395585 89.60953489 -32 87 C-34.01632326 83.92242278 -34.01632326 83.92242278 -37 82 C-37.80715454 81.26015869 -37.80715454 81.26015869 -38.63061523 80.50537109 C-40.23023663 79.1253592 -41.83047346 77.74639282 -43.4375 76.375 C-44.03933105 75.8601001 -44.64116211 75.3452002 -45.26123047 74.81469727 C-52.39700525 68.75289637 -59.6795337 62.69282365 -67.375 57.3515625 C-69 56 -69 56 -69.375 53.4375 C-69 51 -69 51 -67 49 C-64.255834 48.69540662 -61.59702615 48.50796748 -58.84375 48.40234375 C-57.61839539 48.34355797 -57.61839539 48.34355797 -56.36828613 48.28358459 C-53.74584662 48.15932122 -51.12305755 48.04787618 -48.5 47.9375 C-45.07272964 47.78389237 -41.64571226 47.62516533 -38.21875 47.46484375 C-37.40156494 47.42741058 -36.58437988 47.38997742 -35.74243164 47.35140991 C-30.13532885 47.08451767 -24.57735971 46.65107608 -19 46 C-14.1169232 33.97193072 -9.4026215 21.90007328 -4.97094727 9.69726562 C-4.61186279 8.72208984 -4.25277832 7.74691406 -3.8828125 6.7421875 C-3.56715332 5.8744873 -3.25149414 5.00678711 -2.92626953 4.11279297 C-2 2 -2 2 0 0 Z " fill="#0A6F46" transform="translate(254,72)"/>
<path d="M0 0 C3.12055958 1.28198427 3.28257922 1.76091977 4.59375 4.7265625 C5.22364664 6.36334323 5.83148282 8.00871506 6.421875 9.66015625 C6.7526001 10.53389893 7.0833252 11.4076416 7.42407227 12.30786133 C8.52585764 15.23099157 9.59860105 18.16394775 10.671875 21.09765625 C11.90810925 24.41236173 13.15022193 27.72481654 14.39355469 31.03686523 C15.19774808 33.18541806 15.99666671 35.33595331 16.79003906 37.48852539 C17.33289551 38.9560022 17.33289551 38.9560022 17.88671875 40.453125 C18.20761475 41.32606201 18.52851074 42.19899902 18.85913086 43.09838867 C19.50629794 45.06166512 19.50629794 45.06166512 20.671875 46.09765625 C22.76085657 46.31611184 24.85663646 46.46997451 26.953125 46.59765625 C28.9182605 46.72043945 28.9182605 46.72043945 30.9230957 46.84570312 C31.61795074 46.88687256 32.31280579 46.92804199 33.02871704 46.97045898 C35.16684099 47.09735748 37.30449374 47.23052567 39.44213867 47.36523438 C45.44012224 47.74005188 51.43816163 48.09779584 57.44140625 48.37890625 C58.2303125 48.41757813 59.01921875 48.45625 59.83203125 48.49609375 C61.83684953 48.59069498 63.84224679 48.67279768 65.84765625 48.75390625 C68.671875 49.09765625 68.671875 49.09765625 70.671875 51.09765625 C70.5204526 54.26186221 69.96180296 55.76288104 67.87890625 58.16796875 C66.69361328 59.18503906 66.69361328 59.18503906 65.484375 60.22265625 C64.13085938 61.38667969 64.13085938 61.38667969 62.75 62.57421875 C57.69792573 66.71589385 52.55758647 70.73928982 47.40136719 74.75 C44.70700386 76.84950389 42.026722 78.96377865 39.359375 81.09765625 C38.47636719 81.79890625 37.59335938 82.50015625 36.68359375 83.22265625 C34.43126522 85.0221856 34.43126522 85.0221856 33.671875 88.09765625 C33.94072294 89.98708064 33.94072294 89.98708064 34.56811523 91.99902344 C34.78841904 92.77703308 35.00872284 93.55504272 35.23570251 94.35662842 C35.48147537 95.19413635 35.72724823 96.03164429 35.98046875 96.89453125 C36.22604019 97.76152649 36.47161163 98.62852173 36.72462463 99.52178955 C37.77594904 103.23310168 38.84682439 106.93868684 39.91723633 110.64453125 C40.69581051 113.35078727 41.46340385 116.05999461 42.23046875 118.76953125 C42.47421738 119.59894226 42.717966 120.42835327 42.96910095 121.28289795 C44.31591279 126.0481056 45.02967868 130.14120213 44.671875 135.09765625 C44.341875 135.42765625 44.011875 135.75765625 43.671875 136.09765625 C36.68798711 136.01407249 32.2491013 132.56950306 26.671875 128.66015625 C25.75212891 128.03431641 24.83238281 127.40847656 23.88476562 126.76367188 C19.6033943 123.84685731 15.35963383 120.88113848 11.140625 117.875 C10.46386719 117.4018335 9.78710938 116.92866699 9.08984375 116.44116211 C7.84118161 115.56649463 6.6033971 114.67601966 5.37890625 113.76782227 C3.54628086 112.42602333 3.54628086 112.42602333 0.671875 111.09765625 C-2.78588276 112.15320435 -5.65580913 113.80898081 -8.6640625 115.78515625 C-9.47415771 116.31471924 -10.28425293 116.84428223 -11.11889648 117.38989258 C-11.97169189 117.95345459 -12.8244873 118.5170166 -13.703125 119.09765625 C-14.58492432 119.67346436 -15.46672363 120.24927246 -16.37524414 120.8425293 C-20.54998138 123.57546221 -24.69928952 126.33790648 -28.80078125 129.1796875 C-29.47512207 129.64310547 -30.14946289 130.10652344 -30.84423828 130.58398438 C-32.09326894 131.44608534 -33.33559769 132.3180068 -34.56982422 133.20117188 C-37.91215792 135.50463303 -40.23723668 136.81193834 -44.328125 136.09765625 C-44.988125 135.43765625 -45.648125 134.77765625 -46.328125 134.09765625 C-45.93087663 124.07383701 -41.79293311 113.58324756 -39.06347656 103.96972656 C-38.44576841 101.78728467 -37.83585582 99.60277219 -37.2265625 97.41796875 C-36.94067764 96.42568771 -36.94067764 96.42568771 -36.64901733 95.4133606 C-35.67566043 91.91280782 -34.80953072 88.72465405 -35.328125 85.09765625 C-36.6350366 83.32759293 -36.6350366 83.32759293 -38.5546875 81.93359375 C-39.25045898 81.37397949 -39.94623047 80.81436523 -40.66308594 80.23779297 C-41.41879883 79.65529785 -42.17451172 79.07280273 -42.953125 78.47265625 C-43.71915039 77.86309082 -44.48517578 77.25352539 -45.27441406 76.62548828 C-47.61461459 74.76834778 -49.97017058 72.9321747 -52.328125 71.09765625 C-53.68594074 70.02606226 -55.0427785 68.9532274 -56.3984375 67.87890625 C-58.71724682 66.04460635 -61.04173191 64.21821337 -63.375 62.40234375 C-64.34953125 61.64179688 -65.3240625 60.88125 -66.328125 60.09765625 C-67.27558594 59.40414062 -68.22304687 58.710625 -69.19921875 57.99609375 C-71.328125 56.09765625 -71.328125 56.09765625 -71.640625 52.84765625 C-71.5375 51.94015625 -71.434375 51.03265625 -71.328125 50.09765625 C-68.14745069 48.5073191 -64.67276137 48.75484692 -61.171875 48.59765625 C-60.35497192 48.55705078 -59.53806885 48.51644531 -58.69641113 48.47460938 C-56.07383528 48.34473561 -53.45102623 48.22077006 -50.828125 48.09765625 C-48.23382927 47.97388813 -45.63961975 47.84876365 -43.04553223 47.72070312 C-41.43164703 47.64122703 -39.81763708 47.56422762 -38.20349121 47.49023438 C-32.5558612 47.21490222 -26.94941515 46.70452727 -21.328125 46.09765625 C-20.88944092 44.94765137 -20.45075684 43.79764648 -19.9987793 42.61279297 C-18.36369567 38.32888916 -16.72456243 34.04654431 -15.08422852 29.76464844 C-14.37609844 27.91448269 -13.6690536 26.06390119 -12.96313477 24.21289062 C-11.94575423 21.54576196 -10.9244248 18.88017408 -9.90234375 16.21484375 C-9.58972092 15.39273407 -9.27709808 14.57062439 -8.95500183 13.72360229 C-3.73790673 0.15679139 -3.73790673 0.15679139 0 0 Z " fill="#0A6F46" transform="translate(79.328125,71.90234375)"/>
<path d="M0 0 C8.67967714 6.86362161 14.89944879 15.89123153 16.5390625 27.0078125 C17.45026653 40.78043739 15.57433737 52.01623928 6.5390625 63.0078125 C-1.06568638 71.22153541 -10.31222107 76.38019671 -21.5546875 77.24609375 C-35.35477086 77.54678364 -46.08378888 74.30792593 -56.4609375 65.0078125 C-64.16881845 57.1526472 -68.45371735 45.8146687 -68.7109375 34.8828125 C-68.50778817 22.79542735 -63.90245782 12.61253751 -55.8359375 3.7578125 C-40.37562103 -10.87321497 -17.2366967 -11.87196113 0 0 Z " fill="#0A6F46" transform="translate(449.4609375,280.9921875)"/>
<path d="M0 0 C0.65613281 0.53238281 1.31226562 1.06476563 1.98828125 1.61328125 C2.92607422 2.36544922 2.92607422 2.36544922 3.8828125 3.1328125 C12.04011129 10.43706043 16.12495003 21.04275677 17.203125 31.74609375 C17.75142201 43.98408298 13.02694272 55.90995789 4.8359375 64.91796875 C-5.19612645 74.12286463 -16.27390017 77.24477814 -29.65625 76.89453125 C-40.56788637 75.97993542 -50.79801828 70.8508922 -58.34375 62.875 C-66.65713492 51.60228368 -68.94680937 40.34179692 -68.01171875 26.61328125 C-66.3441621 16.04266789 -60.58572995 7.13783754 -52.43359375 0.3671875 C-36.57887668 -11.11469631 -16.03133547 -11.81102046 0 0 Z " fill="#0A6F46" transform="translate(114.01171875,281.38671875)"/>
<path d="M0 0 C2.5 2.125 2.5 2.125 4 5 C4.07466312 9.18113479 3.65275307 11.22856455 0.9375 14.4375 C-0.031875 15.283125 -1.00125 16.12875 -2 17 C-3.27719224 18.28537937 -4.54749597 19.57762382 -5.8125 20.875 C-9.04786197 24.11036197 -12.37979114 27.16803836 -15.8671875 30.12890625 C-17.43646148 31.50561364 -18.95615266 32.93935126 -20.4453125 34.40234375 C-27.75836955 41.48057786 -27.75836955 41.48057786 -32.3125 42.3125 C-36.65240519 41.94471142 -38.19365137 41.31659383 -41 38 C-42 35.0625 -42 35.0625 -42 32 C-38.01852857 24.22545483 -30.72877625 18.50067005 -24.1796875 12.8984375 C-20.54538722 9.73307919 -17.03955706 6.42404394 -13.515625 3.13671875 C-8.81376884 -0.85693858 -6.11857733 -1.63890464 0 0 Z " fill="#0A6F46" transform="translate(340,48)"/>
<path d="M0 0 C2.84375 1.8203125 2.84375 1.8203125 5.5 4.125 C6.44488281 4.9396875 7.38976562 5.754375 8.36328125 6.59375 C11.10114389 9.09230317 13.74273881 11.6462546 16.31640625 14.3125 C18.80132219 16.8031814 21.47326356 19.0631146 24.13671875 21.359375 C26.53847065 23.4741251 28.77173469 25.7042115 31 28 C31.33 28.33 31.66 28.66 32 29 C32.58394161 36.12408759 32.58394161 36.12408759 30.375 39.4375 C27.4340868 41.37231132 25.52349544 41.92809193 22 42 C17.35520404 39.7336599 13.88582251 36.27985229 10.1875 32.75 C8.94216958 31.57731385 7.69608104 30.40543225 6.44921875 29.234375 C5.85415527 28.67427734 5.2590918 28.11417969 4.64599609 27.53710938 C0.96602488 24.10057737 -2.80200006 20.7495291 -6.7421875 17.61328125 C-12.11845742 13.33027196 -12.11845742 13.33027196 -13 10 C-12.92526438 5.81480553 -12.60878514 3.71621781 -9.875 0.5 C-6.05170645 -1.49476185 -4.16159664 -0.9671941 0 0 Z " fill="#0A6F46" transform="translate(181,48)"/>
<path d="M0 0 C2.34225867 1.56150578 2.86753999 2.47793124 3.55761719 5.19775391 C4.4536077 10.87334945 4.22742771 16.64163913 4.25 22.375 C4.270625 23.67695313 4.29125 24.97890625 4.3125 26.3203125 C4.36285266 38.65671448 4.36285266 38.65671448 1 44 C-2.3125 45.625 -2.3125 45.625 -6 46 C-11.52272727 43.95454545 -11.52272727 43.95454545 -13 41 C-13.1234077 38.19097896 -13.18840795 35.40772276 -13.203125 32.59765625 C-13.20882507 31.76415146 -13.21452515 30.93064667 -13.22039795 30.07188416 C-13.22985044 28.30745718 -13.23638292 26.54301254 -13.24023438 24.77856445 C-13.24994904 22.07667365 -13.28097304 19.3755406 -13.3125 16.67382812 C-13.31902913 14.96094203 -13.32427996 13.24805048 -13.328125 11.53515625 C-13.3404718 10.7257106 -13.3528186 9.91626495 -13.36553955 9.08229065 C-13.34304703 3.43044017 -13.34304703 3.43044017 -11.66522217 1.32518005 C-7.85210528 -1.70928979 -4.51273635 -0.96701493 0 0 Z " fill="#0A6F46" transform="translate(261,6)"/>
</svg>

