<?xml version="1.0" encoding="UTF-8"?>
<svg version="1.1" xmlns="http://www.w3.org/2000/svg" width="512" height="512">
<path d="M0 0 C1.57648315 0.01244751 1.57648315 0.01244751 3.18481445 0.02514648 C21.30038546 0.41759699 37.18306364 7.74976225 50.1875 20.4375 C62.23829061 34.01129732 68.81094617 50.12244439 68.625 68.25 C68.61670166 69.30098877 68.60840332 70.35197754 68.59985352 71.43481445 C68.15672679 91.88960727 58.66051938 108.29118535 44.1875 122.4375 C45.05117188 122.68628906 45.91484375 122.93507813 46.8046875 123.19140625 C61.65958595 128.66336076 74.11314154 142.31153313 83.2265625 154.78515625 C85.07901196 157.4278237 85.07901196 157.4278237 87.1875 159.4375 C88.22197266 158.35082031 88.22197266 158.35082031 89.27734375 157.2421875 C94.74135248 151.58865299 100.12851936 146.11437563 107.1875 142.4375 C107.8475 142.4375 108.5075 142.4375 109.1875 142.4375 C108.59582031 141.68726563 108.00414062 140.93703125 107.39453125 140.1640625 C97.19211582 126.94918836 90.16891431 112.72022238 92.1875 95.4375 C94.99162903 79.81675865 100.82258556 66.24483815 113.89453125 56.3984375 C128.29014215 46.93558838 142.30389428 43.59750406 159.4296875 45.8671875 C173.96453733 48.99005974 186.82977589 57.50847162 195.0625 69.875 C203.95581023 84.89946294 206.21793846 99.94604098 202.22265625 116.94921875 C199.27475355 126.88309463 193.9410487 134.68977408 187.1875 142.4375 C187.9196875 142.69917969 188.651875 142.96085938 189.40625 143.23046875 C195.89339983 146.04581889 201.41464937 151.30668557 206.1875 156.4375 C207.18716797 157.42943359 207.18716797 157.42943359 208.20703125 158.44140625 C218.06231698 168.63247684 223.80879444 180.73179044 227.1875 194.4375 C227.37699219 195.19933594 227.56648438 195.96117187 227.76171875 196.74609375 C228.37517646 200.62382183 228.49208274 204.45403911 228.5625 208.375 C228.59988281 209.16068359 228.63726562 209.94636719 228.67578125 210.75585938 C228.73907198 214.95766087 228.49115916 217.61490886 225.7890625 220.94140625 C221.59734575 224.96318853 218.35484944 224.6016552 212.79394531 224.63037109 C211.49123184 224.64263733 211.49123184 224.64263733 210.16220093 224.65515137 C207.28001601 224.68002051 204.39788041 224.69652596 201.515625 224.7109375 C200.53201744 224.71626118 199.54840988 224.72158485 198.53499603 224.72706985 C193.32802611 224.75380905 188.12108022 224.77318081 182.9140625 224.78759766 C177.53585742 224.80424028 172.15826575 224.84901277 166.78029251 224.8999691 C162.64527687 224.93362928 158.51040697 224.9451738 154.37526703 224.95082474 C152.39292467 224.95754144 150.41059204 224.97277437 148.42838287 224.99671555 C145.6512918 225.02834129 142.87585676 225.02840773 140.09863281 225.02099609 C139.28178009 225.03740143 138.46492737 225.05380676 137.62332153 225.07070923 C133.50271636 225.02576331 130.95331043 224.65939558 127.6930542 222.02603149 C123.84445145 218.04997325 123.79701946 215.36176371 123.828125 209.98828125 C124.40710034 205.87881496 126.18664929 204.22400423 129.1875 201.4375 C132.10832455 199.97708772 134.67051369 200.31821204 137.93212891 200.32397461 C138.97132225 200.32375557 138.97132225 200.32375557 140.0315094 200.3235321 C142.32572541 200.32422982 144.61986064 200.33201558 146.9140625 200.33984375 C148.50304113 200.34170843 150.09202034 200.3431321 151.68099976 200.34413147 C155.86659325 200.34795269 160.05215213 200.35777961 164.23773193 200.36883545 C168.50744153 200.37905806 172.7771567 200.38363091 177.046875 200.38867188 C185.42709923 200.39940222 193.80729531 200.41647392 202.1875 200.4375 C201.28210977 198.06667264 200.36668722 195.70054958 199.4453125 193.3359375 C199.19370361 192.67392334 198.94209473 192.01190918 198.68286133 191.32983398 C193.64966194 178.49872006 184.2155756 168.62050836 171.671875 162.80859375 C157.78822724 157.34540948 142.36443674 155.91686701 128.08203125 161.10546875 C123.08987462 163.40280399 118.62120442 166.20325185 114.1875 169.4375 C113.21876953 170.11232422 113.21876953 170.11232422 112.23046875 170.80078125 C106.55892814 175.14085409 102.2170925 181.00767337 99.1875 187.4375 C98.88097096 190.22180547 99.17305598 192.41901877 99.6640625 195.171875 C100.36413968 199.53952069 100.48843967 203.83289052 100.5625 208.25 C100.59988281 209.06283447 100.63726562 209.87566895 100.67578125 210.71313477 C100.73841436 214.93347534 100.50057164 217.60515697 97.7890625 220.94921875 C93.83773083 224.72849544 91.1552658 224.58775365 85.92608643 224.59140015 C85.16907023 224.5957824 84.41205404 224.60016465 83.63209796 224.6046797 C81.08187795 224.61809129 78.53169252 224.62425185 75.98144531 224.63037109 C74.1583948 224.63827021 72.33534586 224.64653904 70.51229858 224.65515137 C64.51342263 224.68139372 58.51453961 224.69668129 52.515625 224.7109375 C50.45225774 224.71629629 48.38889054 224.72167379 46.32552338 224.72706985 C37.74366995 224.7487019 29.16181842 224.7674393 20.57994461 224.77869225 C8.27231969 224.79493546 -4.03498972 224.82811864 -16.34249568 224.88509309 C-24.99139055 224.92376866 -33.64020095 224.94332212 -42.28918004 224.94861281 C-47.45719947 224.95226956 -52.62488255 224.96432518 -57.79280853 224.99671555 C-62.65528564 225.02675412 -67.51722214 225.03312304 -72.37977219 225.02133179 C-74.16398761 225.0211107 -75.94822781 225.02944492 -77.73235703 225.04698563 C-80.16994053 225.06964528 -82.60555842 225.06139884 -85.04315186 225.04550171 C-85.74802695 225.0593838 -86.45290205 225.07326588 -87.17913699 225.08756864 C-92.75154689 224.99812285 -95.03080669 223.23399207 -98.8125 219.4375 C-100.50584356 216.05081289 -99.95486408 212.2219369 -99.9375 208.5 C-99.94221313 207.20654663 -99.94221313 207.20654663 -99.94702148 205.88696289 C-99.93704295 201.27036997 -99.6569999 196.93557087 -98.875 192.375 C-98.36234296 187.92042601 -99.47265418 185.73521744 -102 182.0625 C-103.24267028 180.49804353 -104.5141814 178.95609221 -105.8125 177.4375 C-106.42609375 176.61121094 -107.0396875 175.78492188 -107.671875 174.93359375 C-115.29196205 166.04812728 -128.17847528 159.25585594 -139.89624023 158.26049805 C-156.14640675 157.81291857 -168.33634173 159.63468164 -181.8125 169.4375 C-182.44671875 169.86417969 -183.0809375 170.29085937 -183.734375 170.73046875 C-187.89096398 173.82884357 -190.66676244 177.83465231 -193.5 182.125 C-193.86883301 182.67679932 -194.23766602 183.22859863 -194.61767578 183.79711914 C-196.9186731 187.44495304 -198.49922398 191.11693538 -199.94458008 195.18286133 C-200.29676102 196.16837479 -200.64894196 197.15388824 -201.01179504 198.16926575 C-201.27602768 198.91778305 -201.54026031 199.66630035 -201.8125 200.4375 C-200.93633026 200.42639694 -200.06016052 200.41529388 -199.15744019 200.40385437 C-190.88892201 200.30355136 -182.62060899 200.22748386 -174.35162163 200.17843914 C-170.10068626 200.15237657 -165.85025477 200.11704071 -161.59960938 200.06030273 C-157.4952514 200.00586204 -153.39137719 199.97605434 -149.28668594 199.96311378 C-147.7229768 199.95389537 -146.15929331 199.93589337 -144.59579086 199.90884972 C-142.40036155 199.87239578 -140.20691512 199.86756098 -138.01123047 199.86987305 C-136.76324677 199.85876999 -135.51526306 199.84766693 -134.22946167 199.83622742 C-129.68476119 200.63594484 -128.06411582 202.21457971 -124.8125 205.4375 C-122.95016575 209.16216849 -123.24119171 213.38245313 -123.8125 217.4375 C-125.4845747 220.56328143 -127.5981235 222.83031175 -130.8125 224.4375 C-133.61802218 224.55687637 -136.39947018 224.6158782 -139.20605469 224.63037109 C-140.50876816 224.64263733 -140.50876816 224.64263733 -141.83779907 224.65515137 C-144.71998399 224.68002051 -147.60211959 224.69652596 -150.484375 224.7109375 C-151.46798256 224.71626118 -152.45159012 224.72158485 -153.46500397 224.72706985 C-158.67197389 224.75380905 -163.87891978 224.77318081 -169.0859375 224.78759766 C-174.46414258 224.80424028 -179.84173425 224.84901277 -185.21970749 224.8999691 C-189.35472313 224.93362928 -193.48959303 224.9451738 -197.62473297 224.95082474 C-199.60707533 224.95754144 -201.58940796 224.97277437 -203.57161713 224.99671555 C-206.3487082 225.02834129 -209.12414324 225.02840773 -211.90136719 225.02099609 C-212.71821991 225.03740143 -213.53507263 225.05380676 -214.37667847 225.07070923 C-218.49728364 225.02576331 -221.04668957 224.65939558 -224.3069458 222.02603149 C-228.76195144 217.42348791 -228.125 212.87163189 -228.125 206.79736328 C-227.82197082 189.24577517 -220.21519828 172.60490158 -208.8125 159.4375 C-208.22984375 158.65246094 -207.6471875 157.86742187 -207.046875 157.05859375 C-204.27203396 153.80349176 -201.18125022 151.3021576 -197.8125 148.6875 C-196.88824219 147.94693359 -196.88824219 147.94693359 -195.9453125 147.19140625 C-195.34460938 146.72089844 -194.74390625 146.25039063 -194.125 145.765625 C-193.58488281 145.3418457 -193.04476562 144.91806641 -192.48828125 144.48144531 C-190.62075157 143.31804832 -188.96031474 142.86214965 -186.8125 142.4375 C-187.40417969 141.68726563 -187.99585938 140.93703125 -188.60546875 140.1640625 C-198.80788418 126.94918836 -205.83108569 112.72022238 -203.8125 95.4375 C-201.00837097 79.81675865 -195.17741444 66.24483815 -182.10546875 56.3984375 C-167.70985785 46.93558838 -153.69610572 43.59750406 -136.5703125 45.8671875 C-122.03546267 48.99005974 -109.17022411 57.50847162 -100.9375 69.875 C-92.04418977 84.89946294 -89.78206154 99.94604098 -93.77734375 116.94921875 C-96.72524645 126.88309463 -102.0589513 134.68977408 -108.8125 142.4375 C-108.07644531 142.70304688 -107.34039062 142.96859375 -106.58203125 143.2421875 C-98.75407949 146.6206829 -92.60847986 153.35724865 -86.8125 159.4375 C-86.26464844 158.74914062 -85.71679688 158.06078125 -85.15234375 157.3515625 C-73.85763239 143.28502715 -62.32914369 130.43646959 -45.8125 122.4375 C-45.1525 122.4375 -44.4925 122.4375 -43.8125 122.4375 C-44.4725 121.81875 -45.1325 121.2 -45.8125 120.5625 C-52.08473759 114.18425276 -57.07735862 107.46965001 -61.125 99.5 C-61.45024658 98.86860107 -61.77549316 98.23720215 -62.1105957 97.58666992 C-66.68393789 88.21553432 -68.35646254 79.00383998 -68.25 68.625 C-68.24170166 67.57401123 -68.23340332 66.52302246 -68.22485352 65.44018555 C-67.83240301 47.32461454 -60.50023775 31.44193636 -47.8125 18.4375 C-34.23870268 6.38670939 -18.12755561 -0.18594617 0 0 Z M-33.84375 40.7890625 C-42.25918854 52.02153343 -44.50659087 63.67961706 -42.8125 77.4375 C-40.01373752 89.63855669 -32.91860608 99.2450713 -22.41796875 105.96484375 C-11.35895507 112.21559061 0.51860957 113.42602983 12.8828125 110.58984375 C25.71022894 106.11692667 34.16117977 97.78914031 40.50390625 85.98828125 C45.02799855 75.69478902 44.85687875 62.96053195 41.1875 52.4375 C35.81937629 40.4983117 27.13256986 32.24997711 15.1875 27 C-2.73153974 21.16235249 -21.58823415 26.60094607 -33.84375 40.7890625 Z M-172.8125 82.4375 C-177.63730221 90.02098098 -180.2277164 97.88171817 -178.28125 106.8984375 C-175.49529799 116.98237248 -169.82512056 124.03082194 -160.94140625 129.61328125 C-153.81169376 132.84848412 -143.97849566 132.7157548 -136.5625 130.5 C-128.33852115 126.71520113 -122.3671304 119.88744237 -118.65234375 111.796875 C-115.66923278 103.41641443 -116.43540788 95.55526482 -119.8125 87.4375 C-124.41549746 79.3356509 -131.48524449 73.47906964 -140.46875 70.91015625 C-153.0689058 68.36912483 -164.50721755 72.68129471 -172.8125 82.4375 Z M123.1875 82.4375 C118.36269779 90.02098098 115.7722836 97.88171817 117.71875 106.8984375 C120.50470201 116.98237248 126.17487944 124.03082194 135.05859375 129.61328125 C142.18830624 132.84848412 152.02150434 132.7157548 159.4375 130.5 C167.66147885 126.71520113 173.6328696 119.88744237 177.34765625 111.796875 C180.33076722 103.41641443 179.56459212 95.55526482 176.1875 87.4375 C171.58450254 79.3356509 164.51475551 73.47906964 155.53125 70.91015625 C142.9310942 68.36912483 131.49278245 72.68129471 123.1875 82.4375 Z M-54.1484375 159.67578125 C-64.98778453 170.97755776 -72.08792756 184.91634803 -73.8125 200.4375 C-24.9725 200.4375 23.8675 200.4375 74.1875 200.4375 C72.17339377 182.31054391 62.65240547 165.86532399 48.63085938 154.13525391 C16.7331427 129.15002023 -25.07159993 131.81453053 -54.1484375 159.67578125 Z " fill="#0A6F46" transform="translate(255.8125,259.5625)"/>
<path d="M0 0 C0.88768987 -0.00438225 1.77537974 -0.00876451 2.6899693 -0.01327956 C5.68241407 -0.0266984 8.67482938 -0.03285333 11.66729736 -0.03897095 C13.80561457 -0.04686946 15.94393043 -0.05513826 18.08224487 -0.06375122 C25.1200228 -0.08999958 32.15780677 -0.10528133 39.19561768 -0.11953735 C41.615593 -0.12489581 44.03556828 -0.13027332 46.45554352 -0.13566971 C56.51973835 -0.15730225 66.58393156 -0.1760401 76.64814377 -0.1872921 C91.08576742 -0.20353816 105.52312221 -0.23672788 119.96064448 -0.29369295 C130.10421912 -0.33235523 140.24772174 -0.35192038 150.39136815 -0.35721266 C156.45362804 -0.36087109 162.51560136 -0.37294491 168.57778168 -0.4053154 C174.2807103 -0.43533055 179.98317798 -0.44173107 185.68616867 -0.42993164 C187.77999207 -0.42971036 189.87383645 -0.4380602 191.96758652 -0.45558548 C194.82546588 -0.47820566 197.68166374 -0.4700152 200.53955078 -0.45410156 C201.36893622 -0.46798365 202.19832166 -0.48186574 203.05283999 -0.49616849 C207.18521044 -0.43943876 209.75217368 -0.07293516 213.02275467 2.56690025 C216.17231721 5.82477991 216.64948078 7.1396578 216.63726807 11.5118103 C216.63719254 12.41259308 216.637117 13.31337585 216.63703918 14.24145508 C216.6318779 15.21545258 216.62671661 16.18945007 216.62139893 17.19296265 C216.6192765 18.68695084 216.6192765 18.68695084 216.61711121 20.21112061 C216.61150204 23.40041067 216.59894797 26.5896312 216.58624268 29.77890015 C216.58122886 31.9377533 216.57666575 34.09660755 216.5725708 36.25546265 C216.56152963 41.55496564 216.54478255 46.85442793 216.52374268 52.15390015 C217.25569351 52.28222229 217.98764435 52.41054443 218.74177551 52.54275513 C221.35772222 53.11742863 223.57671901 53.88592777 226.03521729 54.93222046 C226.89638657 55.29640076 227.75755585 55.66058105 228.64482117 56.03579712 C229.5626387 56.43055237 230.48045624 56.82530762 231.42608643 57.23202515 C232.38140762 57.64047668 233.33672882 58.04892822 234.32099915 58.46975708 C236.33850651 59.33469581 238.35487626 60.20229225 240.37017822 61.07235718 C243.44217998 62.39568848 246.52073547 63.70284157 249.59991455 65.0093689 C251.56322925 65.85343526 253.52613382 66.69845636 255.48858643 67.54452515 C256.86227638 68.12451263 256.86227638 68.12451263 258.26371765 68.71621704 C269.82486118 73.75613716 269.82486118 73.75613716 272.52374268 79.15390015 C272.64305316 80.90980892 272.70094136 82.67004621 272.72906494 84.42977905 C272.74901016 85.53076935 272.76895538 86.63175964 272.789505 87.76611328 C272.81457375 89.55521622 272.81457375 89.55521622 272.84014893 91.38046265 C272.86093002 92.59841522 272.88171112 93.8163678 272.90312195 95.07122803 C272.96866851 98.97372635 273.02752623 102.87629365 273.08624268 106.77890015 C273.12942303 109.41953237 273.17303715 112.06015754 273.21710205 114.70077515 C273.32435511 121.18507658 273.42611197 127.66944709 273.52374268 134.15390015 C274.09923859 134.34546692 274.6747345 134.53703369 275.26766968 134.73440552 C281.27364829 136.73558388 287.27533624 138.7492478 293.27471924 140.77011108 C295.51225588 141.52200111 297.75085592 142.27073445 299.99053955 143.01620483 C303.21541639 144.09020911 306.43625923 145.17562407 309.65655518 146.26327515 C310.65365509 146.59261047 311.650755 146.9219458 312.67807007 147.26126099 C324.64279446 151.33247782 324.64279446 151.33247782 328.52374268 157.15390015 C328.78380489 159.44283772 328.78380489 159.44283772 328.79789734 162.18180847 C328.80787247 163.22061661 328.8178476 164.25942474 328.828125 165.32971191 C328.82878967 166.46899139 328.82945435 167.60827087 328.83013916 168.78207397 C328.83846268 169.98231705 328.84678619 171.18256012 328.85536194 172.41917419 C328.87535153 175.71275411 328.88610686 179.00608102 328.89118838 182.29970002 C328.89483177 184.35830107 328.90107178 186.41687781 328.90818977 188.47546959 C328.93268851 195.66003869 328.94573666 202.84453556 328.94927979 210.02914429 C328.95291341 216.72133392 328.9827947 223.41306445 329.02468437 230.1051138 C329.05940492 235.8538564 329.07482854 241.60244702 329.07552582 247.35129374 C329.07631818 250.78336153 329.08503643 254.2149619 329.11352348 257.64692116 C329.1403503 261.47753573 329.1356365 265.30688247 329.12310791 269.13754272 C329.14535934 270.83735291 329.14535934 270.83735291 329.1680603 272.57150269 C329.08811547 281.14654437 329.08811547 281.14654437 326.11128235 284.84242249 C322.07785679 288.44552592 319.34940535 288.54380992 314.07452393 288.51327515 C309.96505763 287.9342998 308.3102469 286.15475085 305.52374268 283.15390015 C304.34987126 280.80615731 304.38658664 279.3930786 304.36552429 276.77532959 C304.35084106 275.39549141 304.35084106 275.39549141 304.33586121 273.98777771 C304.33010574 272.97573776 304.32435028 271.96369781 304.31842041 270.92098999 C304.30852081 269.85755875 304.29862122 268.7941275 304.28842163 267.69847107 C304.25674187 264.17061619 304.2320236 260.64274783 304.20733643 257.11483765 C304.18677249 254.67388552 304.16577618 252.23293701 304.1443634 249.79199219 C304.08908484 243.3574617 304.0397011 236.92289877 303.99151611 230.48831177 C303.94134327 223.92629091 303.88563523 217.36431735 303.8303833 210.80233765 C303.722731 197.91956579 303.62111393 185.0367536 303.52374268 172.15390015 C302.77301987 171.89604736 302.02229706 171.63819458 301.24882507 171.37252808 C294.05964152 168.90315042 286.87060865 166.43333479 279.68173122 163.9630661 C275.98876608 162.69409184 272.29574937 161.42526813 268.6026001 160.15682983 C265.0167886 158.92525049 261.43113174 157.69322182 257.8455677 156.46092224 C256.49978846 155.99847954 255.15395993 155.53618023 253.80807304 155.0740509 C241.36780074 150.80230176 228.94505713 146.48042605 216.52374268 142.15390015 C216.52835164 142.7410486 216.53296061 143.32819706 216.53770924 143.93313789 C216.64820909 158.23047443 216.73090913 172.52777282 216.78280354 186.82544136 C216.8085675 193.73977128 216.84368273 200.65381588 216.90093994 207.56796265 C216.9561651 214.23991699 216.98516088 220.91151363 216.99812889 227.5837059 C217.00737097 230.12984764 217.02541849 232.67597306 217.05239296 235.22198868 C217.08866353 238.78705214 217.09368856 242.35088904 217.09136963 245.91610718 C217.10934601 246.96987045 217.12732239 248.02363373 217.14584351 249.10932922 C217.08955515 257.10116244 217.08955515 257.10116244 214.11326599 260.79376221 C210.09273246 264.4581485 207.3743533 264.54395433 202.07452393 264.51327515 C197.96505763 263.9342998 196.3102469 262.15475085 193.52374268 259.15390015 C191.81580721 255.73802922 192.39133555 251.82587391 192.40348816 248.06781006 C192.40220652 246.63804523 192.40220652 246.63804523 192.40089899 245.17939627 C192.39924374 241.96563793 192.40476633 238.75193107 192.41021729 235.53817749 C192.41049917 233.24234519 192.41034139 230.94651279 192.40977478 228.65068054 C192.40948687 222.40099045 192.4153826 216.15131939 192.42234874 209.90163374 C192.42858331 203.37664352 192.42918616 196.8516529 192.43037415 190.32666016 C192.43313306 179.36933043 192.43938705 168.41200777 192.44830322 157.4546814 C192.45747848 146.16724685 192.46454729 134.87981422 192.46881104 123.59237671 C192.46907903 122.8898345 192.46934703 122.18729229 192.46962315 121.46346092 C192.47193591 115.35261158 192.47408875 109.24176219 192.47622585 103.13091278 C192.48564004 76.80523531 192.50555917 50.47957641 192.52374268 24.15390015 C131.80374268 24.15390015 71.08374268 24.15390015 8.52374268 24.15390015 C8.61075439 49.27901733 8.61075439 49.27901733 8.69952393 74.91171265 C8.72506185 85.50286231 8.74933752 96.09398975 8.7678833 106.68515015 C8.77767267 112.24765089 8.78777509 117.81015093 8.79840088 123.37265015 C8.80037899 124.41840418 8.80037899 124.41840418 8.80239707 125.48528457 C8.82414409 136.74080534 8.86356332 147.99619839 8.90950666 159.25164343 C8.95626326 170.80265818 8.98366209 182.35358311 8.99418515 193.90469062 C9.00071007 200.39287776 9.01607161 206.88077534 9.05239296 213.36886978 C9.08629358 219.47392711 9.0968074 225.57857521 9.08928108 231.68371773 C9.09065826 233.92589986 9.10062564 236.16809548 9.11977005 238.4101963 C9.14461459 241.46956613 9.13867848 244.527387 9.12501526 247.58679199 C9.14686157 248.92046285 9.14686157 248.92046285 9.16914922 250.28107655 C9.11756859 254.54824019 8.84193684 257.30412447 6.11116314 260.68934441 C2.12400574 264.48717 -0.57369567 264.54425506 -5.92547607 264.51327515 C-10.03494237 263.9342998 -11.6897531 262.15475085 -14.47625732 259.15390015 C-15.68219075 256.7420333 -15.59944651 255.24156938 -15.59651184 252.54754639 C-15.59857384 251.09198082 -15.59857384 251.09198082 -15.60067749 249.60700989 C-15.59528458 248.00479332 -15.59528458 248.00479332 -15.58978271 246.37020874 C-15.58992874 245.24825607 -15.59007477 244.12630341 -15.59022522 242.97035217 C-15.58952641 239.24766126 -15.58173548 235.52501986 -15.57391357 231.80233765 C-15.57204928 229.22686795 -15.57062543 226.65139791 -15.56962585 224.07592773 C-15.56619282 217.98089693 -15.55830471 211.88588668 -15.54827636 205.79086363 C-15.53710788 198.85262043 -15.53160292 191.91437638 -15.52658093 184.97612643 C-15.51612191 170.70204139 -15.49852704 156.4279714 -15.47625732 142.15390015 C-44.5320615 151.99724782 -73.54269361 161.95653902 -102.47625732 172.15390015 C-102.47707448 172.98823924 -102.47707448 172.98823924 -102.47790813 173.83943367 C-102.49288828 187.38597174 -102.53570037 200.93217702 -102.60834789 214.47853279 C-102.64264103 221.02954819 -102.66773158 227.5803298 -102.67181396 234.13143921 C-102.67609178 240.45345618 -102.70451283 246.77494554 -102.7496891 253.09679794 C-102.76268043 255.50888878 -102.76696604 257.9210427 -102.76241112 260.33316422 C-102.75751711 263.71165211 -102.78354726 267.08859089 -102.8168335 270.46688843 C-102.80820786 271.46454727 -102.79958221 272.46220612 -102.79069519 273.49009705 C-102.86520852 278.00058311 -102.99479862 281.16644288 -105.89247131 284.75933838 C-109.89713588 288.47072029 -112.61094194 288.54403945 -117.92547607 288.51327515 C-122.03494237 287.9342998 -123.6897531 286.15475085 -126.47625732 283.15390015 C-127.71621679 280.67398121 -127.61034015 279.01452954 -127.62342834 276.23951721 C-127.63058365 275.20063858 -127.63773895 274.16175995 -127.64511108 273.09140015 C-127.64779999 271.94695435 -127.65048889 270.80250854 -127.65325928 269.62338257 C-127.65983047 268.42167923 -127.66640167 267.21997589 -127.673172 265.9818573 C-127.68952719 262.6800795 -127.70113415 259.37836582 -127.70937753 256.07656264 C-127.71452752 254.01379568 -127.72060326 251.95103321 -127.72688866 249.88826942 C-127.74594138 243.43458557 -127.76017218 236.98091317 -127.76850063 230.5272066 C-127.77827361 223.07706588 -127.80459401 215.62722223 -127.84500152 208.17718619 C-127.87516037 202.41915102 -127.88996927 196.66120101 -127.89328164 190.90308839 C-127.89563247 187.46382969 -127.90459635 184.02488832 -127.92974281 180.58571434 C-127.95735038 176.74791323 -127.95319308 172.91050306 -127.94622803 169.07260132 C-127.95903809 167.93422821 -127.97184814 166.7958551 -127.98504639 165.62298584 C-127.93412489 157.94248022 -127.93412489 157.94248022 -125.6493988 154.00752258 C-122.81659536 151.59122891 -119.8632046 150.40125964 -116.38250732 149.23983765 C-115.68476196 148.99293182 -114.9870166 148.746026 -114.26812744 148.49163818 C-112.00927159 147.69680117 -109.74332482 146.92496671 -107.47625732 146.15390015 C-105.94719042 145.62157947 -104.41854494 145.08804674 -102.89031982 144.55331421 C-98.2598114 142.93957445 -93.61885815 141.35744257 -88.97625732 139.77890015 C-87.36290106 139.22833867 -85.74961945 138.67755836 -84.13641357 138.1265564 C-80.250546 136.79982765 -76.36369715 135.47601458 -72.47625732 134.15390015 C-72.47483231 133.47817963 -72.47340729 132.80245911 -72.47193909 132.10626221 C-72.45223391 125.0654149 -72.39794165 118.02543357 -72.32366943 110.98495483 C-72.30049005 108.35839046 -72.2860939 105.73173314 -72.28070068 103.10507202 C-72.27141143 99.32648807 -72.23041622 95.54936591 -72.18328857 91.77108765 C-72.18722122 90.5989975 -72.19115387 89.42690735 -72.19520569 88.21929932 C-72.03264793 79.11048095 -72.03264793 79.11048095 -69.25164795 75.53036499 C-66.63368144 73.28869663 -64.52295929 71.84422642 -61.36297607 70.51327515 C-60.37305664 70.08699829 -59.38313721 69.66072144 -58.36322021 69.2215271 C-56.77948608 68.56930176 -56.77948608 68.56930176 -55.16375732 67.90390015 C-54.07248535 67.44007935 -52.98121338 66.97625854 -51.85687256 66.49838257 C-49.56683724 65.52820121 -47.27354335 64.56567946 -44.97723389 63.61044312 C-41.49853112 62.16316691 -38.02965157 60.69429648 -34.56219482 59.2203064 C-32.38821981 58.30114432 -30.21375825 57.38313197 -28.03875732 56.46640015 C-27.00903809 56.03230835 -25.97931885 55.59821655 -24.918396 55.15097046 C-23.49490845 54.55880737 -23.49490845 54.55880737 -22.04266357 53.9546814 C-21.20678711 53.60574829 -20.37091064 53.25681519 -19.50970459 52.89730835 C-17.47625732 52.15390015 -17.47625732 52.15390015 -15.47625732 52.15390015 C-15.48736038 51.60346039 -15.49846344 51.05302063 -15.50990295 50.48590088 C-15.62074731 44.74323802 -15.69602768 39.00088028 -15.75091553 33.25741577 C-15.77601895 31.11568859 -15.810109 28.97404674 -15.85345459 26.83261108 C-15.91428883 23.74938885 -15.94250913 20.66730172 -15.96453857 17.58358765 C-15.990345 16.63023529 -16.01615143 15.67688293 -16.04273987 14.69464111 C-16.04461749 10.2176363 -15.95291104 7.12996054 -13.07073975 3.56454468 C-8.83377587 -0.37219959 -5.54415527 0.00329192 0 0 Z M216.52374268 79.15390015 C216.52374268 91.03390015 216.52374268 102.91390015 216.52374268 115.15390015 C221.61811768 116.96890015 226.71249268 118.78390015 231.96124268 120.65390015 C233.57055664 121.22817749 235.17987061 121.80245483 236.83795166 122.39413452 C238.10686883 122.84543131 239.37582755 123.2966113 240.64483643 123.74765015 C241.30906616 123.98515991 241.9732959 124.22266968 242.65765381 124.46737671 C245.52175429 125.65030682 245.52175429 125.65030682 248.52374268 126.15390015 C248.52374268 114.93390015 248.52374268 103.71390015 248.52374268 92.15390015 C243.98624268 90.19452515 239.44874268 88.23515015 234.77374268 86.21640015 C233.34836182 85.59901978 231.92298096 84.9816394 230.45440674 84.34555054 C228.7639624 83.61839844 228.7639624 83.61839844 227.03936768 82.8765564 C225.88726807 82.37905884 224.73516846 81.88156128 223.54815674 81.36898804 C220.41310531 80.02947166 220.41310531 80.02947166 216.52374268 79.15390015 Z M-23.35516357 81.99765015 C-23.96356079 82.25320679 -24.57195801 82.50876343 -25.1987915 82.77206421 C-27.47959827 83.73073198 -29.75909839 84.69250606 -32.03875732 85.65390015 C-39.68031982 88.87140015 -39.68031982 88.87140015 -47.47625732 92.15390015 C-47.47625732 103.37390015 -47.47625732 114.59390015 -47.47625732 126.15390015 C-42.56750732 124.52452515 -37.65875732 122.89515015 -32.60125732 121.21640015 C-31.05325439 120.70343384 -29.50525146 120.19046753 -27.91033936 119.66195679 C-26.69717041 119.25839966 -25.48400146 118.85484253 -24.23406982 118.4390564 C-22.98770752 118.0253479 -21.74134521 117.6116394 -20.45721436 117.18539429 C-17.59429463 116.26714614 -17.59429463 116.26714614 -15.47625732 115.15390015 C-15.47625732 103.27390015 -15.47625732 91.39390015 -15.47625732 79.15390015 C-18.06835541 79.15390015 -20.95763997 80.98449323 -23.35516357 81.99765015 Z " fill="#0A6F46" transform="translate(155.47625732421875,27.846099853515625)"/>
<path d="M0 0 C3.12578143 1.6720747 5.39281175 3.7856235 7 7 C7.28339763 11.77973427 7.31374058 16.56031361 7.35009766 21.34765625 C7.36662653 22.94220608 7.39387651 24.53668275 7.43212891 26.13085938 C7.48714107 28.43658655 7.50880817 30.7405783 7.5234375 33.046875 C7.54610687 33.75334167 7.56877625 34.45980835 7.59213257 35.18768311 C7.57573732 39.06379798 6.99278501 41.46968132 4.59228516 44.43457031 C1.30522904 47.6875733 -0.25053309 48.19774827 -4.75 48.375 C-8.49103938 48.3533442 -10.6566975 48.02882688 -13.5625 45.625 C-18.51232692 40.29441716 -17.29759852 33.56520301 -17.35009766 26.65234375 C-17.36662653 25.05779392 -17.39387651 23.46331725 -17.43212891 21.86914062 C-17.48714107 19.56341345 -17.50880817 17.2594217 -17.5234375 14.953125 C-17.54610687 14.24665833 -17.56877625 13.54019165 -17.59213257 12.81231689 C-17.57573732 8.93620202 -16.99278501 6.53031868 -14.59228516 3.56542969 C-10.20150189 -0.77986609 -5.98745647 -0.84356201 0 0 Z " fill="#0A6F46" transform="translate(421,212)"/>
<path d="M0 0 C3.12578143 1.6720747 5.39281175 3.7856235 7 7 C7.28339763 11.77973427 7.31374058 16.56031361 7.35009766 21.34765625 C7.36662653 22.94220608 7.39387651 24.53668275 7.43212891 26.13085938 C7.48714107 28.43658655 7.50880817 30.7405783 7.5234375 33.046875 C7.54610687 33.75334167 7.56877625 34.45980835 7.59213257 35.18768311 C7.57573732 39.06379798 6.99278501 41.46968132 4.59228516 44.43457031 C1.30522904 47.6875733 -0.25053309 48.19774827 -4.75 48.375 C-8.49103938 48.3533442 -10.6566975 48.02882688 -13.5625 45.625 C-18.51232692 40.29441716 -17.29759852 33.56520301 -17.35009766 26.65234375 C-17.36662653 25.05779392 -17.39387651 23.46331725 -17.43212891 21.86914062 C-17.48714107 19.56341345 -17.50880817 17.2594217 -17.5234375 14.953125 C-17.54610687 14.24665833 -17.56877625 13.54019165 -17.59213257 12.81231689 C-17.57573732 8.93620202 -16.99278501 6.53031868 -14.59228516 3.56542969 C-10.20150189 -0.77986609 -5.98745647 -0.84356201 0 0 Z " fill="#0A6F46" transform="translate(101,212)"/>
<path d="M0 0 C3.12578143 1.6720747 5.39281175 3.7856235 7 7 C7.28339763 11.77973427 7.31374058 16.56031361 7.35009766 21.34765625 C7.36662653 22.94220608 7.39387651 24.53668275 7.43212891 26.13085938 C7.48714107 28.43658655 7.50880817 30.7405783 7.5234375 33.046875 C7.54610687 33.75334167 7.56877625 34.45980835 7.59213257 35.18768311 C7.57573732 39.06379798 6.99278501 41.46968132 4.59228516 44.43457031 C1.30522904 47.6875733 -0.25053309 48.19774827 -4.75 48.375 C-8.49103938 48.3533442 -10.6566975 48.02882688 -13.5625 45.625 C-18.51232692 40.29441716 -17.29759852 33.56520301 -17.35009766 26.65234375 C-17.36662653 25.05779392 -17.39387651 23.46331725 -17.43212891 21.86914062 C-17.48714107 19.56341345 -17.50880817 17.2594217 -17.5234375 14.953125 C-17.54610687 14.24665833 -17.56877625 13.54019165 -17.59213257 12.81231689 C-17.57573732 8.93620202 -16.99278501 6.53031868 -14.59228516 3.56542969 C-10.20150189 -0.77986609 -5.98745647 -0.84356201 0 0 Z " fill="#0A6F46" transform="translate(317,196)"/>
<path d="M0 0 C3.12578143 1.6720747 5.39281175 3.7856235 7 7 C7.28339763 11.77973427 7.31374058 16.56031361 7.35009766 21.34765625 C7.36662653 22.94220608 7.39387651 24.53668275 7.43212891 26.13085938 C7.48714107 28.43658655 7.50880817 30.7405783 7.5234375 33.046875 C7.54610687 33.75334167 7.56877625 34.45980835 7.59213257 35.18768311 C7.57573732 39.06379798 6.99278501 41.46968132 4.59228516 44.43457031 C1.30522904 47.6875733 -0.25053309 48.19774827 -4.75 48.375 C-8.49103938 48.3533442 -10.6566975 48.02882688 -13.5625 45.625 C-18.51232692 40.29441716 -17.29759852 33.56520301 -17.35009766 26.65234375 C-17.36662653 25.05779392 -17.39387651 23.46331725 -17.43212891 21.86914062 C-17.48714107 19.56341345 -17.50880817 17.2594217 -17.5234375 14.953125 C-17.54610687 14.24665833 -17.56877625 13.54019165 -17.59213257 12.81231689 C-17.57573732 8.93620202 -16.99278501 6.53031868 -14.59228516 3.56542969 C-10.20150189 -0.77986609 -5.98745647 -0.84356201 0 0 Z " fill="#0A6F46" transform="translate(261,196)"/>
<path d="M0 0 C3.12578143 1.6720747 5.39281175 3.7856235 7 7 C7.28339763 11.77973427 7.31374058 16.56031361 7.35009766 21.34765625 C7.36662653 22.94220608 7.39387651 24.53668275 7.43212891 26.13085938 C7.48714107 28.43658655 7.50880817 30.7405783 7.5234375 33.046875 C7.54610687 33.75334167 7.56877625 34.45980835 7.59213257 35.18768311 C7.57573732 39.06379798 6.99278501 41.46968132 4.59228516 44.43457031 C1.30522904 47.6875733 -0.25053309 48.19774827 -4.75 48.375 C-8.49103938 48.3533442 -10.6566975 48.02882688 -13.5625 45.625 C-18.51232692 40.29441716 -17.29759852 33.56520301 -17.35009766 26.65234375 C-17.36662653 25.05779392 -17.39387651 23.46331725 -17.43212891 21.86914062 C-17.48714107 19.56341345 -17.50880817 17.2594217 -17.5234375 14.953125 C-17.54610687 14.24665833 -17.56877625 13.54019165 -17.59213257 12.81231689 C-17.57573732 8.93620202 -16.99278501 6.53031868 -14.59228516 3.56542969 C-10.20150189 -0.77986609 -5.98745647 -0.84356201 0 0 Z " fill="#0A6F46" transform="translate(205,196)"/>
<path d="M0 0 C3.12578143 1.6720747 5.39281175 3.7856235 7 7 C7.28339763 11.77973427 7.31374058 16.56031361 7.35009766 21.34765625 C7.36662653 22.94220608 7.39387651 24.53668275 7.43212891 26.13085938 C7.48714107 28.43658655 7.50880817 30.7405783 7.5234375 33.046875 C7.54610687 33.75334167 7.56877625 34.45980835 7.59213257 35.18768311 C7.57573732 39.06379798 6.99278501 41.46968132 4.59228516 44.43457031 C1.30522904 47.6875733 -0.25053309 48.19774827 -4.75 48.375 C-8.49103938 48.3533442 -10.6566975 48.02882688 -13.5625 45.625 C-18.51232692 40.29441716 -17.29759852 33.56520301 -17.35009766 26.65234375 C-17.36662653 25.05779392 -17.39387651 23.46331725 -17.43212891 21.86914062 C-17.48714107 19.56341345 -17.50880817 17.2594217 -17.5234375 14.953125 C-17.54610687 14.24665833 -17.56877625 13.54019165 -17.59213257 12.81231689 C-17.57573732 8.93620202 -16.99278501 6.53031868 -14.59228516 3.56542969 C-10.20150189 -0.77986609 -5.98745647 -0.84356201 0 0 Z " fill="#0A6F46" transform="translate(317,132)"/>
<path d="M0 0 C3.12578143 1.6720747 5.39281175 3.7856235 7 7 C7.28339763 11.77973427 7.31374058 16.56031361 7.35009766 21.34765625 C7.36662653 22.94220608 7.39387651 24.53668275 7.43212891 26.13085938 C7.48714107 28.43658655 7.50880817 30.7405783 7.5234375 33.046875 C7.54610687 33.75334167 7.56877625 34.45980835 7.59213257 35.18768311 C7.57573732 39.06379798 6.99278501 41.46968132 4.59228516 44.43457031 C1.30522904 47.6875733 -0.25053309 48.19774827 -4.75 48.375 C-8.49103938 48.3533442 -10.6566975 48.02882688 -13.5625 45.625 C-18.51232692 40.29441716 -17.29759852 33.56520301 -17.35009766 26.65234375 C-17.36662653 25.05779392 -17.39387651 23.46331725 -17.43212891 21.86914062 C-17.48714107 19.56341345 -17.50880817 17.2594217 -17.5234375 14.953125 C-17.54610687 14.24665833 -17.56877625 13.54019165 -17.59213257 12.81231689 C-17.57573732 8.93620202 -16.99278501 6.53031868 -14.59228516 3.56542969 C-10.20150189 -0.77986609 -5.98745647 -0.84356201 0 0 Z " fill="#0A6F46" transform="translate(261,132)"/>
<path d="M0 0 C3.12578143 1.6720747 5.39281175 3.7856235 7 7 C7.28339763 11.77973427 7.31374058 16.56031361 7.35009766 21.34765625 C7.36662653 22.94220608 7.39387651 24.53668275 7.43212891 26.13085938 C7.48714107 28.43658655 7.50880817 30.7405783 7.5234375 33.046875 C7.54610687 33.75334167 7.56877625 34.45980835 7.59213257 35.18768311 C7.57573732 39.06379798 6.99278501 41.46968132 4.59228516 44.43457031 C1.30522904 47.6875733 -0.25053309 48.19774827 -4.75 48.375 C-8.49103938 48.3533442 -10.6566975 48.02882688 -13.5625 45.625 C-18.51232692 40.29441716 -17.29759852 33.56520301 -17.35009766 26.65234375 C-17.36662653 25.05779392 -17.39387651 23.46331725 -17.43212891 21.86914062 C-17.48714107 19.56341345 -17.50880817 17.2594217 -17.5234375 14.953125 C-17.54610687 14.24665833 -17.56877625 13.54019165 -17.59213257 12.81231689 C-17.57573732 8.93620202 -16.99278501 6.53031868 -14.59228516 3.56542969 C-10.20150189 -0.77986609 -5.98745647 -0.84356201 0 0 Z " fill="#0A6F46" transform="translate(205,132)"/>
<path d="M0 0 C3.12578143 1.6720747 5.39281175 3.7856235 7 7 C7.28339763 11.77973427 7.31374058 16.56031361 7.35009766 21.34765625 C7.36662653 22.94220608 7.39387651 24.53668275 7.43212891 26.13085938 C7.48714107 28.43658655 7.50880817 30.7405783 7.5234375 33.046875 C7.54610687 33.75334167 7.56877625 34.45980835 7.59213257 35.18768311 C7.57573732 39.06379798 6.99278501 41.46968132 4.59228516 44.43457031 C1.30522904 47.6875733 -0.25053309 48.19774827 -4.75 48.375 C-8.49103938 48.3533442 -10.6566975 48.02882688 -13.5625 45.625 C-18.51232692 40.29441716 -17.29759852 33.56520301 -17.35009766 26.65234375 C-17.36662653 25.05779392 -17.39387651 23.46331725 -17.43212891 21.86914062 C-17.48714107 19.56341345 -17.50880817 17.2594217 -17.5234375 14.953125 C-17.54610687 14.24665833 -17.56877625 13.54019165 -17.59213257 12.81231689 C-17.57573732 8.93620202 -16.99278501 6.53031868 -14.59228516 3.56542969 C-10.20150189 -0.77986609 -5.98745647 -0.84356201 0 0 Z " fill="#0A6F46" transform="translate(317,68)"/>
<path d="M0 0 C3.12578143 1.6720747 5.39281175 3.7856235 7 7 C7.28339763 11.77973427 7.31374058 16.56031361 7.35009766 21.34765625 C7.36662653 22.94220608 7.39387651 24.53668275 7.43212891 26.13085938 C7.48714107 28.43658655 7.50880817 30.7405783 7.5234375 33.046875 C7.54610687 33.75334167 7.56877625 34.45980835 7.59213257 35.18768311 C7.57573732 39.06379798 6.99278501 41.46968132 4.59228516 44.43457031 C1.30522904 47.6875733 -0.25053309 48.19774827 -4.75 48.375 C-8.49103938 48.3533442 -10.6566975 48.02882688 -13.5625 45.625 C-18.51232692 40.29441716 -17.29759852 33.56520301 -17.35009766 26.65234375 C-17.36662653 25.05779392 -17.39387651 23.46331725 -17.43212891 21.86914062 C-17.48714107 19.56341345 -17.50880817 17.2594217 -17.5234375 14.953125 C-17.54610687 14.24665833 -17.56877625 13.54019165 -17.59213257 12.81231689 C-17.57573732 8.93620202 -16.99278501 6.53031868 -14.59228516 3.56542969 C-10.20150189 -0.77986609 -5.98745647 -0.84356201 0 0 Z " fill="#0A6F46" transform="translate(261,68)"/>
<path d="M0 0 C3.12578143 1.6720747 5.39281175 3.7856235 7 7 C7.28339763 11.77973427 7.31374058 16.56031361 7.35009766 21.34765625 C7.36662653 22.94220608 7.39387651 24.53668275 7.43212891 26.13085938 C7.48714107 28.43658655 7.50880817 30.7405783 7.5234375 33.046875 C7.54610687 33.75334167 7.56877625 34.45980835 7.59213257 35.18768311 C7.57573732 39.06379798 6.99278501 41.46968132 4.59228516 44.43457031 C1.30522904 47.6875733 -0.25053309 48.19774827 -4.75 48.375 C-8.49103938 48.3533442 -10.6566975 48.02882688 -13.5625 45.625 C-18.51232692 40.29441716 -17.29759852 33.56520301 -17.35009766 26.65234375 C-17.36662653 25.05779392 -17.39387651 23.46331725 -17.43212891 21.86914062 C-17.48714107 19.56341345 -17.50880817 17.2594217 -17.5234375 14.953125 C-17.54610687 14.24665833 -17.56877625 13.54019165 -17.59213257 12.81231689 C-17.57573732 8.93620202 -16.99278501 6.53031868 -14.59228516 3.56542969 C-10.20150189 -0.77986609 -5.98745647 -0.84356201 0 0 Z " fill="#0A6F46" transform="translate(205,68)"/>
</svg>

